<?xml version="1.0" encoding="UTF-8"?>
<svg version="1.1" xmlns="http://www.w3.org/2000/svg" width="512" height="512">
<path d="M0 0 C0.64493433 -0.00350607 1.28986866 -0.00701215 1.95434645 -0.01062447 C4.13032236 -0.0199793 6.30603303 -0.01500477 8.48202038 -0.01015663 C10.05188456 -0.01389085 11.62174688 -0.01849145 13.19160622 -0.02388728 C17.51726531 -0.03616109 21.84284731 -0.03585167 26.16851985 -0.03349853 C30.82916934 -0.03309146 35.48979374 -0.04411897 40.15043163 -0.05361366 C49.28612921 -0.07024885 58.42180099 -0.07572435 67.55751244 -0.07683842 C74.98159317 -0.07778774 82.40566536 -0.08189224 89.82974339 -0.08823967 C110.86522762 -0.10585928 131.90069141 -0.11507747 152.93618307 -0.11357872 C154.63834222 -0.11345885 154.63834222 -0.11345885 156.37488842 -0.11333656 C157.51104228 -0.1132548 158.64719614 -0.11317304 159.81777891 -0.1130888 C178.23347054 -0.11227579 196.64908041 -0.13141535 215.06474838 -0.1596133 C233.96094554 -0.18831934 252.85710278 -0.20215483 271.7533223 -0.20042574 C282.36727231 -0.19976103 292.98113662 -0.20528873 303.59506702 -0.22678185 C312.63195608 -0.24496373 321.66872058 -0.2493657 330.70561997 -0.235763 C335.31800324 -0.22921806 339.93014737 -0.22917093 344.54250813 -0.2464695 C348.76366399 -0.26213826 352.98438986 -0.25940044 357.20553484 -0.24190123 C358.73380749 -0.2388176 360.26211174 -0.24251482 361.79034714 -0.25362138 C363.8665112 -0.26771248 365.94116069 -0.25718256 368.01727295 -0.24050903 C369.17075598 -0.24094377 370.324239 -0.24137851 371.51267606 -0.24182642 C376.04959904 0.46917974 379.21291352 2.36070226 382.05631888 5.99341595 C383.03937866 9.46490968 382.97343519 12.90151269 382.95466709 16.47891617 C382.95817317 17.31916731 382.96167924 18.15941846 382.96529156 19.02513176 C382.97464477 21.85948293 382.96967216 24.6936304 382.96482372 27.52799034 C382.968558 29.5730691 382.97315863 31.61814643 382.97855437 33.66322148 C382.99082717 39.29779727 382.99051888 44.93231389 382.98816562 50.56690001 C382.98775853 56.63790354 382.99878619 62.70888781 383.00828075 68.77988243 C383.02491492 80.67939913 383.03041726 92.57889668 383.03150551 104.47842203 C383.032424 114.14742491 383.03653757 123.81642135 383.04290676 133.48542213 C383.0447018 136.26693029 383.04648143 139.04843846 383.04825652 141.82994664 C383.04891966 142.86713221 383.04891966 142.86713221 383.0495962 143.92527102 C383.06190732 163.37885667 383.06979705 182.83244009 383.06890965 202.28602982 C383.06886291 203.38655479 383.06886291 203.38655479 383.06881523 204.50931259 C383.06864901 208.22806995 383.06845093 211.94682731 383.06824581 215.66558467 C383.06820592 216.4041662 383.06816603 217.14274773 383.06812493 217.90371052 C383.06804406 219.39730264 383.06796046 220.89089476 383.06787415 222.38448688 C383.06664842 245.62644835 383.08166467 268.86835148 383.10901928 292.11029625 C383.13972678 318.21189504 383.15695259 344.31345551 383.15509284 370.41507351 C383.15494357 373.19721039 383.15484616 375.97934727 383.1547842 378.76148415 C383.15476089 379.44653625 383.15473759 380.13158834 383.15471357 380.8373996 C383.15465197 391.87127627 383.16743458 402.90510237 383.18464873 413.938964 C383.20158556 425.02416913 383.20325059 436.10931495 383.19043009 447.19452988 C383.18388019 453.20230845 383.18385606 459.20990338 383.20113659 465.21766472 C383.21678299 470.7136881 383.21409034 476.20938093 383.19656833 481.70539583 C383.19347977 483.69729592 383.19719999 485.68922016 383.20828848 487.68109177 C383.22233464 490.38244506 383.21188258 493.08262684 383.19517612 495.78393936 C383.21008066 496.95221416 383.21008066 496.95221416 383.2252863 498.14409047 C383.15723721 503.32520691 381.99906199 506.28340587 378.69739819 510.25726891 C375.13113579 512.63477717 373.60946525 512.50938141 369.37638569 512.51453781 C368.72946339 512.51804389 368.08254109 512.52154996 367.41601509 512.52516228 C365.23328672 512.53451728 363.05082276 512.52954255 360.868083 512.52469444 C359.29338133 512.52842865 357.71868152 512.53302924 356.14398468 512.53842509 C351.80499347 512.55069895 347.4660791 512.55038948 343.12707448 512.54803634 C338.4521291 512.54762928 333.77720872 512.55865669 329.10227489 512.56815147 C319.93883885 512.58478637 310.77542854 512.59026214 301.61197866 512.59137623 C294.16595953 512.59232551 286.7199489 512.59642977 279.27393246 512.60277748 C258.17804505 512.62039653 237.08217802 512.62961529 215.9862832 512.62811653 C214.27924947 512.62799666 214.27924947 512.62799666 212.53773022 512.62787437 C211.39832343 512.62779261 210.25891664 512.62771085 209.08498238 512.62762661 C190.61364982 512.62681348 172.14239876 512.6459563 153.67108978 512.67415111 C134.71952687 512.70285147 115.76800374 512.71669298 96.81641853 512.71496356 C86.17064243 512.71429868 75.52495178 512.71983373 64.87919521 512.74131966 C55.81592726 512.75949401 46.75278348 512.7639097 37.68950523 512.75030081 C33.06306926 512.74375222 28.43687175 512.74372182 23.81045818 512.76100731 C19.57763559 512.77665994 15.34524207 512.77395502 11.11243044 512.75643905 C9.57879205 512.75335183 8.04512225 512.75706589 6.51152088 512.7681592 C4.43052138 512.78221859 2.35103988 512.77174545 0.27009296 512.75504684 C-0.88680755 512.75548158 -2.04370806 512.75591632 -3.23566616 512.75636423 C-7.6313645 512.04103377 -9.96889648 510.04334698 -12.59902251 506.52112186 C-13.67497079 503.05912593 -13.57870207 499.62508126 -13.55987072 496.03562164 C-13.56337679 495.1953705 -13.56688287 494.35511935 -13.57049519 493.48940605 C-13.5798484 490.65505488 -13.57487579 487.82090741 -13.57002735 484.98654747 C-13.57376163 482.94146871 -13.57836226 480.89639138 -13.583758 478.85131633 C-13.59603079 473.21674054 -13.59572251 467.58222392 -13.59336925 461.9476378 C-13.59296216 455.87663427 -13.60398982 449.80565 -13.61348438 443.73465538 C-13.63011855 431.83513868 -13.63562089 419.93564113 -13.63670914 408.03611578 C-13.63762763 398.3671129 -13.6417412 388.69811646 -13.64811039 379.02911568 C-13.64990543 376.24760752 -13.65168506 373.46609935 -13.65346014 370.68459117 C-13.65390224 369.99313413 -13.65434434 369.30167708 -13.65479983 368.58926679 C-13.66711095 349.13568114 -13.67500068 329.68209772 -13.67411327 310.228508 C-13.67408212 309.49482468 -13.67405096 308.76114137 -13.67401886 308.00522523 C-13.67385264 304.28646786 -13.67365456 300.5677105 -13.67344944 296.84895314 C-13.67340955 296.11037161 -13.67336966 295.37179008 -13.67332856 294.61082729 C-13.67324769 293.11723517 -13.67316409 291.62364305 -13.67307778 290.13005093 C-13.67185205 266.88808947 -13.6868683 243.64618634 -13.71422291 220.40424156 C-13.7449304 194.30264277 -13.76215622 168.2010823 -13.76029646 142.0994643 C-13.7601472 139.31732742 -13.76004979 136.53519055 -13.75998783 133.75305367 C-13.75996452 133.06800157 -13.75994121 132.38294947 -13.7599172 131.67713821 C-13.7598556 120.64326155 -13.7726382 109.60943544 -13.78985236 98.57557382 C-13.80678919 87.49036869 -13.80845422 76.40522286 -13.79563372 65.32000794 C-13.78908381 59.31222936 -13.78905969 53.30463443 -13.80634022 47.29687309 C-13.82198662 41.80084971 -13.81929396 36.30515688 -13.80177195 30.80914198 C-13.7986834 28.8172419 -13.80240362 26.82531765 -13.8134921 24.83344604 C-13.82753827 22.13209275 -13.81708621 19.43191097 -13.80037975 16.73059845 C-13.81031611 15.95174858 -13.82025247 15.17289872 -13.83048993 14.37044734 C-13.76244083 9.1893309 -12.60426562 6.23113194 -9.30260181 2.25726891 C-5.74030003 -0.11759895 -4.22743297 0.00516552 0 0 Z " fill="#EDF4F5" transform="translate(71.30260181427002,-0.25726890563964844)"/>
<path d="M0 0 C0 168.96 0 337.92 0 512 C-158 512 -158 512 -163 508 C-165.72228544 504.35435639 -165.28015838 500.14133563 -165.25726891 495.77835274 C-165.26077498 494.93810159 -165.26428105 494.09785045 -165.26789337 493.23213714 C-165.27724659 490.39778597 -165.27227398 487.5636385 -165.26742554 484.72927856 C-165.27115982 482.68419981 -165.27576044 480.63912248 -165.28115618 478.59404743 C-165.29342898 472.95947163 -165.29312069 467.32495502 -165.29076743 461.69036889 C-165.29036035 455.61936537 -165.301388 449.5483811 -165.31088257 443.47738647 C-165.32751674 431.57786977 -165.33301907 419.67837223 -165.33410732 407.77884687 C-165.33502581 398.109844 -165.33913938 388.44084756 -165.34550858 378.77184677 C-165.34730361 375.99033861 -165.34908324 373.20883044 -165.35085833 370.42732227 C-165.35130043 369.73586522 -165.35174252 369.04440818 -165.35219802 368.33199789 C-165.36450913 348.87841223 -165.37239886 329.42482881 -165.37151146 309.97123909 C-165.3714803 309.23755578 -165.37144914 308.50387246 -165.37141704 307.74795632 C-165.37125082 304.02919896 -165.37105274 300.3104416 -165.37084763 296.59168424 C-165.37080774 295.85310271 -165.37076785 295.11452118 -165.37072675 294.35355839 C-165.37064587 292.85996627 -165.37056228 291.36637415 -165.37047596 289.87278203 C-165.36925024 266.63082056 -165.38426648 243.38891743 -165.41162109 220.14697266 C-165.44232859 194.04537386 -165.45955441 167.9438134 -165.45769465 141.84219539 C-165.45754538 139.06005851 -165.45744797 136.27792164 -165.45738602 133.49578476 C-165.45736271 132.81073266 -165.4573394 132.12568056 -165.45731538 131.41986931 C-165.45725379 120.38599264 -165.47003639 109.35216654 -165.48725055 98.31830491 C-165.50418737 87.23309978 -165.5058524 76.14795396 -165.4930319 65.06273903 C-165.486482 59.05496045 -165.48645787 53.04736552 -165.5037384 47.03960419 C-165.51938481 41.54358081 -165.51669215 36.04788798 -165.49917014 30.55187307 C-165.49608159 28.55997299 -165.49980181 26.56804875 -165.51089029 24.57617714 C-165.52493645 21.87482385 -165.5144844 19.17464207 -165.49777794 16.47332954 C-165.5077143 15.69447968 -165.51765066 14.91562981 -165.52788812 14.11317843 C-165.45983902 8.93206199 -164.30166381 5.97386304 -161 2 C-116.34318899 -27.77120734 -53.67080729 0 0 0 Z " fill="#62DBFA" transform="translate(223,0)"/>
<path d="M0 0 C4.87461475 -0.09924823 9.74863497 -0.17164581 14.62402344 -0.21972656 C16.28070325 -0.23978009 17.93731282 -0.26703029 19.59375 -0.30175781 C21.98194758 -0.35055512 24.36920547 -0.37303064 26.7578125 -0.390625 C27.85973434 -0.42159271 27.85973434 -0.42159271 28.98391724 -0.45318604 C34.146065 -0.45541318 37.08218392 0.65904477 41 4 C43.63595782 7.73490985 43.28029372 11.83286666 43.25726891 16.22164726 C43.26077498 17.06189841 43.26428105 17.90214955 43.26789337 18.76786286 C43.27724659 21.60221403 43.27227398 24.4363615 43.26742554 27.27072144 C43.27115982 29.31580019 43.27576044 31.36087752 43.28115618 33.40595257 C43.29342898 39.04052837 43.29312069 44.67504498 43.29076743 50.30963111 C43.29036035 56.38063463 43.301388 62.4516189 43.31088257 68.52261353 C43.32751674 80.42213023 43.33301907 92.32162777 43.33410732 104.22115313 C43.33502581 113.890156 43.33913938 123.55915244 43.34550858 133.22815323 C43.34730361 136.00966139 43.34908324 138.79116956 43.35085833 141.57267773 C43.35152148 142.6098633 43.35152148 142.6098633 43.35219802 143.66800211 C43.36450913 163.12158777 43.37239886 182.57517119 43.37151146 202.02876091 C43.37146472 203.12928588 43.37146472 203.12928588 43.37141704 204.25204368 C43.37125082 207.97080104 43.37105274 211.6895584 43.37084763 215.40831576 C43.37080774 216.14689729 43.37076785 216.88547882 43.37072675 217.64644161 C43.37064587 219.14003373 43.37056228 220.63362585 43.37047596 222.12721797 C43.36925024 245.36917944 43.38426648 268.61108257 43.41162109 291.85302734 C43.44232859 317.95462614 43.45955441 344.0561866 43.45769465 370.15780461 C43.45754538 372.93994149 43.45744797 375.72207836 43.45738602 378.50421524 C43.45736271 379.18926734 43.4573394 379.87431944 43.45731538 380.58013069 C43.45725379 391.61400736 43.47003639 402.64783346 43.48725055 413.68169509 C43.50418737 424.76690022 43.5058524 435.85204604 43.4930319 446.93726097 C43.486482 452.94503955 43.48645787 458.95263448 43.5037384 464.96039581 C43.51938481 470.45641919 43.51669215 475.95211202 43.49917014 481.44812693 C43.49608159 483.44002701 43.49980181 485.43195125 43.51089029 487.42382286 C43.52493645 490.12517615 43.5144844 492.82535793 43.49777794 495.52667046 C43.5077143 496.30552032 43.51765066 497.08437019 43.52788812 497.88682157 C43.45983902 503.06793801 42.30166381 506.02613696 39 510 C35.21157527 512.52561648 32.21466671 512.25391573 27.83203125 512.1953125 C26.63981209 512.19106766 26.63981209 512.19106766 25.42350769 512.18673706 C22.88635162 512.17554705 20.34954928 512.15044491 17.8125 512.125 C16.09180198 512.11496866 14.37109841 512.10584308 12.65039062 512.09765625 C8.43345757 512.07561161 4.21678875 512.04109006 0 512 C3.75 509 3.75 509 6 509 C8.87801477 501.96670551 9.52073997 495.48934695 9.6875 487.9375 C9.72166016 486.88111328 9.75582031 485.82472656 9.79101562 484.73632812 C9.87269295 482.15765843 9.94209943 479.57929438 10 477 C11.134375 476.54625 12.26875 476.0925 13.4375 475.625 C17.04721692 474.42904194 17.04721692 474.42904194 18 472 C18.75137168 469.1292764 18.75137168 469.1292764 18 466 C16.17711852 465.08569904 16.17711852 465.08569904 14.02160645 464.26570129 C11.82228088 462.94642067 11.82228088 462.94642067 10 461 C8.76273709 455.89299317 8.9890668 450.7788149 9.09179688 445.5612793 C9.09405417 443.96450413 9.09278542 442.36772066 9.08825684 440.77095032 C9.08596172 436.44007758 9.13298611 432.11097797 9.1888485 427.78051734 C9.23886603 423.25357545 9.24355881 418.72659269 9.25305176 414.19941711 C9.27791503 405.62852752 9.3435611 397.05845445 9.42384768 388.4879244 C9.51327324 378.72994762 9.5572543 368.97193179 9.59741116 359.21364725 C9.68102775 339.14197579 9.8217373 319.07103933 10 299 C9.12755268 299.00368717 8.25510536 299.00737434 7.35622025 299.01117325 C-13.85864676 299.09945684 -35.07348217 299.16567676 -56.28849411 299.20724869 C-66.5478652 299.2278862 -76.80711378 299.25602953 -87.06640625 299.30175781 C-96.00695286 299.34158916 -104.94741077 299.36742416 -113.88804364 299.37635398 C-118.62339841 299.38157501 -123.35849936 299.39387096 -128.09377289 299.42292023 C-132.54905128 299.45003089 -137.00397084 299.45845385 -141.45932388 299.45243073 C-143.09602177 299.45353292 -144.73273141 299.4615128 -146.36935806 299.4768219 C-148.60172344 299.49668268 -150.8327286 299.49195474 -153.06512451 299.48101807 C-154.94005144 299.48654882 -154.94005144 299.48654882 -156.85285568 299.49219131 C-160.57574921 298.90995686 -161.73914434 297.95252676 -164 295 C-164.6015625 293 -164.6015625 293 -164.625 291 C-164.65851563 290.34 -164.69203125 289.68 -164.7265625 289 C-163.51273766 285.65871871 -161.01975123 284.69284885 -158 283 C-154.63799477 282.50780869 -154.63799477 282.50780869 -150.90054321 282.51898193 C-150.20937987 282.51556423 -149.51821652 282.51214653 -148.80610883 282.50862527 C-146.50263419 282.50206488 -144.20033894 282.52398999 -141.89697266 282.54589844 C-140.24093656 282.54702732 -138.58489846 282.54639225 -136.92886353 282.54412842 C-132.44158256 282.54298194 -127.95473029 282.56648046 -123.46754885 282.59442425 C-118.77504945 282.61944894 -114.08253996 282.62178075 -109.38998413 282.62652588 C-100.50776468 282.63895251 -91.62574244 282.67176991 -82.74360979 282.71192384 C-72.63002709 282.75665125 -62.51643491 282.77863103 -52.40277791 282.79870558 C-31.60173895 282.8405028 -10.80088885 282.91165564 10 283 C10 278.05 10 273.1 10 268 C8.23889893 268.02618408 6.47779785 268.05236816 4.66333008 268.0793457 C-1.16394719 268.16006359 -6.99120516 268.21746502 -12.81887341 268.25906086 C-16.35132845 268.28512388 -19.88317713 268.32045866 -23.4152832 268.37719727 C-27.47873661 268.44206064 -31.54155598 268.46620732 -35.60546875 268.48828125 C-36.8702153 268.51408768 -38.13496185 268.5398941 -39.43803406 268.56648254 C-49.2079843 268.56960714 -49.2079843 268.56960714 -52.2980957 265.65698242 C-54.41098777 262.35837328 -54.80042571 260.8420434 -54 257 C-52.34747816 254.42011258 -51.619391 253.42257476 -49 252 C-44.53511866 251.28945942 -40.11625461 251.41967876 -35.60546875 251.51171875 C-33.65173088 251.52233086 -33.65173088 251.52233086 -31.65852356 251.53315735 C-28.20736116 251.55218487 -24.75726261 251.60124561 -21.30651855 251.65667725 C-17.78066396 251.70796351 -14.25463627 251.73069117 -10.72851562 251.75585938 C-3.81853116 251.80937137 3.09057371 251.89727053 10 252 C10 247.05 10 242.1 10 237 C7.89385818 237.00888245 5.78771637 237.01776489 3.61775208 237.0269165 C-16.20330601 237.10860226 -36.02434194 237.16815848 -55.84553051 237.20724869 C-66.0364922 237.22788058 -76.22733044 237.25601319 -86.41821289 237.30175781 C-95.29980546 237.34160634 -104.18130863 237.36742825 -113.0629881 237.37635398 C-117.76651755 237.38157209 -122.46979122 237.39384956 -127.17323875 237.42292023 C-131.59979372 237.45005799 -136.0259874 237.45844833 -140.45261765 237.45243073 C-142.07760773 237.4535317 -143.70260982 237.46149548 -145.327528 237.4768219 C-147.54640739 237.49672508 -149.7639229 237.49193923 -151.98283386 237.48101807 C-153.22448901 237.48470524 -154.46614416 237.48839241 -155.74542522 237.49219131 C-159.60339917 236.90874758 -161.26186448 235.72772603 -164 233 C-164.6640625 231 -164.6640625 231 -164.625 229 C-164.63789063 228.34 -164.65078125 227.68 -164.6640625 227 C-163.61919504 223.85310505 -161.73234086 222.7967412 -159 221 C-155.74542522 220.50780869 -155.74542522 220.50780869 -151.98283386 220.51898193 C-151.28844139 220.51556423 -150.59404892 220.51214653 -149.87861425 220.50862527 C-147.55821955 220.50205097 -145.23898878 220.52401321 -142.91870117 220.54589844 C-141.25296048 220.54702702 -139.5872178 220.54639284 -137.92147827 220.54412842 C-133.40314892 220.54298076 -128.88524433 220.56649836 -124.36701369 220.59442425 C-119.64381167 220.61942931 -114.92059992 220.6217792 -110.19734192 220.62652588 C-101.25488278 220.63895828 -92.31261924 220.6717835 -83.37024623 220.71192384 C-73.18897314 220.75663329 -63.00769071 220.77862651 -52.82634389 220.79870558 C-31.88411714 220.84051588 -10.94207778 220.91167884 10 221 C10 216.05 10 211.1 10 206 C8.18113281 206.03480469 6.36226562 206.06960937 4.48828125 206.10546875 C2.0963634 206.13360896 -0.29556443 206.16090887 -2.6875 206.1875 C-3.88568359 206.21263672 -5.08386719 206.23777344 -6.31835938 206.26367188 C-8.05375977 206.27817383 -8.05375977 206.27817383 -9.82421875 206.29296875 C-11.41882935 206.31653442 -11.41882935 206.31653442 -13.0456543 206.34057617 C-16.4515233 205.94794852 -18.26569571 205.03842966 -21 203 C-23 200 -23 200 -22.875 196.5 C-22 193 -22 193 -20.35253906 191.29956055 C-17.24533865 189.5831193 -15.02389432 189.65876508 -11.484375 189.70703125 C-10.35741211 189.71452393 -9.23044922 189.7220166 -8.06933594 189.72973633 C-6.64395508 189.75704834 -5.21857422 189.78436035 -3.75 189.8125 C0.7875 189.874375 5.325 189.93625 10 190 C10 180.1 10 170.2 10 160 C9.01 160.33 8.02 160.66 7 161 C4.88072326 161.10230329 2.75834739 161.1437366 0.6366272 161.15390015 C-0.01169307 161.1582824 -0.66001334 161.16266465 -1.32797968 161.1671797 C-3.50430061 161.18055354 -5.68058106 161.18674329 -7.85693359 161.19287109 C-9.41574791 161.20077301 -10.9745604 161.20904202 -12.53337097 161.21765137 C-17.65504208 161.24385526 -22.77672131 161.2591747 -27.8984375 161.2734375 C-29.66125112 161.27879735 -31.42406469 161.28417486 -33.1868782 161.28956985 C-40.51804839 161.3111938 -47.84921638 161.32993176 -55.18041039 161.34119225 C-65.69027339 161.35744123 -76.19976729 161.39064738 -86.70949113 161.44759309 C-94.09810374 161.48626476 -101.48661749 161.50582148 -108.87532866 161.51111281 C-113.28935145 161.51476933 -117.70298041 161.52682259 -122.11689377 161.55921555 C-126.26861583 161.58924862 -130.41970476 161.59562536 -134.57151222 161.58383179 C-136.09491776 161.58361067 -137.61835228 161.5919476 -139.14165688 161.60948563 C-141.22275514 161.63214105 -143.30155019 161.62390358 -145.38265991 161.60800171 C-146.54667517 161.61131186 -147.71069042 161.614622 -148.90997887 161.61803246 C-152.94295753 160.81139988 -154.44021816 159.14488834 -157 156 C-157.64697266 153.58398438 -157.64697266 153.58398438 -157.6640625 151.09375 C-157.67050781 150.18496094 -157.67695313 149.27617187 -157.68359375 148.33984375 C-157.66425781 147.40269531 -157.64492187 146.46554688 -157.625 145.5 C-157.65400391 144.09427734 -157.65400391 144.09427734 -157.68359375 142.66015625 C-157.67392578 141.29697266 -157.67392578 141.29697266 -157.6640625 139.90625 C-157.65842285 139.08447266 -157.6527832 138.26269531 -157.64697266 137.41601562 C-156.68773359 133.83389119 -154.82356572 132.34808925 -152 130 C-148.92838955 129.38196754 -148.92838955 129.38196754 -145.42735291 129.39199829 C-144.78070177 129.3870206 -144.13405064 129.38204291 -143.46780401 129.37691438 C-141.30849653 129.36636601 -139.1511091 129.39145837 -136.99194336 129.41650391 C-135.44106369 129.41627713 -133.89018303 129.41386173 -132.33930969 129.40942383 C-128.13258451 129.40371987 -123.92655298 129.4290016 -119.71995997 129.46009874 C-115.31760892 129.48765617 -110.91525651 129.48763946 -106.51283264 129.49081421 C-99.12098195 129.50001594 -91.72939018 129.52754185 -84.33764648 129.56787109 C-73.91229189 129.62469959 -63.48706764 129.64702287 -53.06158245 129.66315579 C-45.84061838 129.67561205 -38.61967406 129.6962878 -31.39873433 129.7185359 C-29.6477284 129.72389741 -27.89672177 129.72903399 -26.14571452 129.73394823 C-21.15456369 129.74825626 -16.16348696 129.76769444 -11.17239189 129.79542542 C-9.65988419 129.80314281 -8.14736702 129.80920641 -6.63484573 129.81350327 C-4.57172928 129.81972797 -2.50873961 129.8320849 -0.44566345 129.84609985 C0.70930161 129.85167215 1.86426668 129.85724445 3.05423069 129.86298561 C5.55246914 129.97918433 7.62167059 130.26976738 10 131 C9.93936188 115.63964961 9.86178909 100.27944859 9.76428509 84.91928959 C9.71939896 77.78662154 9.67996795 70.65400262 9.65356445 63.52124023 C9.63052595 57.30130599 9.59706314 51.08152816 9.55129844 44.86171812 C9.52744453 41.57107277 9.51022005 38.28061337 9.50238609 34.98988533 C9.4927357 31.30820967 9.46466331 27.62709389 9.43237305 23.94555664 C9.43380814 22.86517624 9.43524323 21.78479584 9.4367218 20.67167664 C9.36112274 14.55981157 9.05220486 8.45289771 6 3 C2.97115156 1.31963489 2.97115156 1.31963489 0 1 C0 0.67 0 0.34 0 0 Z " fill="#DCEBF0" transform="translate(411,0)"/>
<path d="M0 0 C5.02830294 4.38120066 8.62499469 9.89860475 9.43359375 16.5859375 C9.44262407 25.34535138 9.33655595 31.6205927 3.0234375 37.99609375 C0.48088104 40.29364022 -1.92504886 42.46252443 -5 44 C-3.98015015 44.01401855 -3.98015015 44.01401855 -2.93969727 44.02832031 C0.18672895 44.08251276 3.31173648 44.16606239 6.4375 44.25 C8.04141602 44.27126953 8.04141602 44.27126953 9.67773438 44.29296875 C17.6600601 44.53707657 24.07132682 45.7599924 30.33984375 50.9296875 C30.86707031 51.57164062 31.39429688 52.21359375 31.9375 52.875 C32.75541016 53.83019531 32.75541016 53.83019531 33.58984375 54.8046875 C37.79530082 61.35168715 37.404935 68.48096423 37.42553711 75.99536133 C37.43749274 78.0612453 37.48679703 80.12419277 37.53710938 82.18945312 C37.54419922 83.49978516 37.55128906 84.81011719 37.55859375 86.16015625 C37.57877563 87.94885132 37.57877563 87.94885132 37.59936523 89.77368164 C36.79597724 94.0982325 35.47818643 95.32834021 32 98 C28.89274073 98.72599208 25.8632346 98.68382144 22.68334961 98.64697266 C21.75270187 98.65573425 20.82205414 98.66449585 19.86320496 98.67352295 C16.79244119 98.69549808 13.72312169 98.68097175 10.65234375 98.6640625 C8.51672591 98.66743088 6.38110994 98.67228368 4.24549866 98.67855835 C-0.22755203 98.6859269 -4.70010313 98.67522327 -9.1730957 98.65185547 C-14.90913373 98.62335089 -20.64400295 98.63978309 -26.37999821 98.66971779 C-30.78865891 98.68777623 -35.19704197 98.68203962 -39.60571098 98.66907883 C-41.72084122 98.66574171 -43.83599661 98.66984259 -45.95109749 98.68147659 C-48.90566019 98.69416294 -51.85832314 98.67483957 -54.81274414 98.64697266 C-56.125896 98.66215439 -56.125896 98.66215439 -57.46557617 98.67764282 C-63.37485785 98.57427755 -63.37485785 98.57427755 -66.54185486 95.66496277 C-68.40005873 92.26883711 -68.51697958 89.875691 -68.53125 86.01171875 C-68.5350769 85.34968948 -68.53890381 84.68766022 -68.54284668 84.00556946 C-68.54555821 82.6095731 -68.53824999 81.21352527 -68.52148438 79.81762695 C-68.50016045 77.70340813 -68.5212524 75.59262613 -68.546875 73.47851562 C-68.56668994 64.68984425 -68.00048922 58.47655511 -61.96484375 51.72265625 C-61.29582031 51.17480469 -60.62679687 50.62695312 -59.9375 50.0625 C-59.26589844 49.49660156 -58.59429687 48.93070313 -57.90234375 48.34765625 C-54.15497768 45.69295133 -50.60445477 45.81532145 -46.14453125 45.68359375 C-45.48289474 45.66281265 -44.82125824 45.64203156 -44.13957214 45.62062073 C-42.03065148 45.55535273 -39.92160865 45.49634656 -37.8125 45.4375 C-36.38084685 45.39429311 -34.94920596 45.35067812 -33.51757812 45.30664062 C-30.01184846 45.19969494 -26.50598214 45.09836359 -23 45 C-23.53254395 44.75693115 -24.06508789 44.5138623 -24.61376953 44.26342773 C-28.7093215 42.32011584 -31.93576295 40.61349213 -34.875 37.0625 C-35.70644531 36.08990234 -35.70644531 36.08990234 -36.5546875 35.09765625 C-41.16901096 28.40065166 -40.88836573 20.79520916 -40 13 C-37.37500772 5.35458522 -32.15995191 0.52790358 -25 -3 C-16.62115798 -5.71474482 -7.49124299 -4.48160326 0 0 Z " fill="#FC6570" transform="translate(155,98)"/>
<path d="M0 0 C0.64594557 -0.00709439 1.29189114 -0.01418877 1.95741081 -0.02149814 C4.11430878 -0.03905159 6.26939811 -0.02099025 8.42626953 -0.00291443 C9.97553324 -0.00805435 11.52479109 -0.01533618 13.07403564 -0.02459717 C17.27664089 -0.04311049 21.47861166 -0.03017339 25.68119049 -0.01050687 C30.08043656 0.00588168 34.47964251 -0.00293355 38.87890625 -0.00802612 C46.26654187 -0.01254686 53.65392428 0.00332143 61.04150391 0.03126526 C69.58095387 0.06331715 78.11994716 0.06330141 86.65942955 0.04605049 C94.8762217 0.03018328 103.09284651 0.03692019 111.30963135 0.0539875 C114.80556699 0.06085771 118.30136849 0.05982588 121.79730225 0.05244255 C125.91459827 0.04477783 130.03137498 0.05691149 134.14858246 0.08429146 C135.65904957 0.09117449 137.16956518 0.09127409 138.68003082 0.08407593 C140.74332018 0.07537674 142.80500848 0.09134131 144.86816406 0.11352539 C146.02220734 0.11633231 147.17625061 0.11913923 148.36526489 0.12203121 C152.09016665 0.73640094 153.753781 2.0217371 156.43408203 4.62818909 C158.18762617 8.13527736 157.61872487 12.14030658 157.62158203 16.00318909 C157.63382813 16.86686096 157.64607422 17.73053284 157.65869141 18.62037659 C157.660625 19.45568909 157.66255859 20.29100159 157.66455078 21.15162659 C157.66865967 21.91394592 157.67276855 22.67626526 157.67700195 23.46168518 C157.39671243 25.96147332 156.78156673 27.50866997 155.43408203 29.62818909 C151.8639723 32.00826224 150.31033349 31.8853945 146.07070923 31.90234375 C145.42238896 31.90758043 144.77406869 31.91281711 144.10610235 31.91821247 C141.92972228 31.93323613 139.75357683 31.93391813 137.57714844 31.93458557 C136.01833193 31.94220547 134.45951919 31.95063268 132.90071106 31.95980835 C128.66307761 31.98177675 124.42551632 31.99055536 120.18783236 31.99563479 C117.54094744 31.99927554 114.89408151 32.00551412 112.24720383 32.01263618 C103.01489174 32.03713862 93.78263591 32.05018433 84.55029297 32.0537262 C75.94157051 32.05736231 67.33320441 32.08726095 58.7245909 32.12913078 C51.33596593 32.16380841 43.94745919 32.1792742 36.55875337 32.17997223 C32.14474938 32.1807659 27.73110825 32.18954554 23.31718826 32.21796989 C19.16544203 32.24410757 15.01436062 32.24638026 10.86256981 32.23031425 C9.33917354 32.22849631 7.81573942 32.23522174 6.29242516 32.25113297 C4.21130176 32.27154458 2.13251535 32.26107567 0.05142212 32.24291992 C-1.11259314 32.24493125 -2.27660839 32.24694258 -3.47589684 32.24901485 C-7.50731513 31.43905005 -9.00630203 29.77236746 -11.56591797 26.62818909 C-12.21289062 24.21217346 -12.21289062 24.21217346 -12.22998047 21.72193909 C-12.23642578 20.81315002 -12.24287109 19.90436096 -12.24951172 18.96803284 C-12.23017578 18.0308844 -12.21083984 17.09373596 -12.19091797 16.12818909 C-12.21025391 15.19104065 -12.22958984 14.25389221 -12.24951172 13.28834534 C-12.24306641 12.37955627 -12.23662109 11.47076721 -12.22998047 10.53443909 C-12.221521 9.30177307 -12.221521 9.30177307 -12.21289062 8.04420471 C-10.5313453 1.76474337 -5.99835077 0.00304745 0 0 Z " fill="#5F99D7" transform="translate(265.56591796875,129.37181091308594)"/>
<path d="M0 0 C0.7152171 -0.00538554 1.4304342 -0.01077108 2.16732454 -0.01631981 C4.56415793 -0.03062871 6.96044131 -0.02348872 9.3572998 -0.01637268 C11.07552027 -0.02207469 12.79373695 -0.02903829 14.51194763 -0.03717041 C19.17924035 -0.05513453 23.84634541 -0.05392748 28.51366234 -0.04822803 C32.40800921 -0.04514125 36.30231976 -0.05122284 40.19666147 -0.05726677 C49.38191139 -0.07132072 58.56706832 -0.06974313 67.75231934 -0.05836487 C77.23410733 -0.04687897 86.71561263 -0.06096527 96.19736338 -0.08776134 C104.33418985 -0.10989715 112.47092744 -0.11656062 120.60778189 -0.11068493 C125.46934878 -0.10730952 130.33073438 -0.10976921 135.192276 -0.12693596 C139.76256685 -0.14236961 144.33243783 -0.1384896 148.90271187 -0.11963081 C150.58131898 -0.11593515 152.25995695 -0.11908176 153.93853569 -0.1295166 C156.22765971 -0.14266204 158.51538041 -0.13123831 160.80444336 -0.11352539 C162.72688496 -0.11321146 162.72688496 -0.11321146 164.68816376 -0.1128912 C168.44923415 0.47287414 169.64236809 1.38222078 171.90222168 4.38768005 C172.21472168 6.4228363 172.21472168 6.4228363 171.90222168 8.45018005 C171.81972168 9.12178162 171.73722168 9.79338318 171.65222168 10.4853363 C170.59215239 13.1741579 169.39568011 13.92418428 166.90222168 15.38768005 C163.70378113 15.76799679 163.70378113 15.76799679 159.84240723 15.77536011 C158.77570691 15.78343841 158.77570691 15.78343841 157.68745708 15.79167992 C155.3044422 15.80598818 152.92198056 15.79884899 150.53894043 15.79173279 C148.83057203 15.79743483 147.12220744 15.80439844 145.41384888 15.81253052 C140.77341449 15.83049426 136.13316885 15.82928766 131.49271011 15.82358813 C127.62073112 15.8205013 123.74878865 15.826583 119.87681484 15.83262688 C110.74430246 15.8466807 101.6118836 15.84510334 92.47937012 15.83372498 C83.05211308 15.82223908 73.62514037 15.83632539 64.1979208 15.86312145 C56.10780296 15.88525746 48.0177745 15.89192069 39.92762852 15.88604504 C35.09400691 15.88266968 30.26056763 15.885129 25.42697144 15.90229607 C20.88294458 15.91773004 16.33934001 15.91384935 11.79533005 15.89499092 C10.12639829 15.89129535 8.45743548 15.89444161 6.78853226 15.90487671 C4.51254265 15.91802279 2.23796433 15.90659791 -0.03796387 15.8888855 C-1.94934395 15.88857157 -1.94934395 15.88857157 -3.89933777 15.8882513 C-7.65328017 15.30074136 -8.8289415 14.37467551 -11.09777832 11.38768005 C-11.87022799 8.42851624 -11.49557974 6.52036627 -11.09777832 3.38768005 C-7.82332035 -0.16361277 -4.6491415 0.00881452 0 0 Z " fill="#0379C8" transform="translate(258.0977783203125,283.61231994628906)"/>
<path d="M0 0 C0.70719885 -0.00694553 1.41439771 -0.01389106 2.14302683 -0.02104706 C4.50692921 -0.03930781 6.86982693 -0.0290561 9.23376465 -0.01878357 C10.93080902 -0.0258425 12.6278471 -0.03458741 14.32487488 -0.04489136 C18.93024268 -0.06739675 23.53526701 -0.06444317 28.14066887 -0.05556989 C31.98527502 -0.05046102 35.82981657 -0.05775164 39.67441607 -0.06504196 C48.74324722 -0.08204424 57.81191012 -0.07847136 66.8807373 -0.06175232 C76.23819186 -0.04482435 85.59518015 -0.06067402 94.95258379 -0.0929752 C102.98670165 -0.1196583 111.02067426 -0.12695076 119.05483198 -0.11846012 C123.85329506 -0.11352792 128.65147747 -0.11576252 133.4499054 -0.13624763 C137.96120718 -0.1545851 142.47183726 -0.14867005 146.9831028 -0.12404823 C148.63871232 -0.11903444 150.29437286 -0.1225449 151.94994164 -0.13519669 C154.21048479 -0.15110523 156.46880989 -0.13620137 158.72924805 -0.11352539 C159.99390648 -0.11293908 161.25856491 -0.11235277 162.56154633 -0.1117487 C166.77322487 0.68697536 168.28887846 2.14481395 170.86462402 5.5146637 C170.86462402 8.96136787 170.67394289 11.29945307 168.74101257 14.20179176 C165.84523987 16.22790662 163.34346879 15.89254779 159.84240723 15.89561462 C159.12325543 15.9002946 158.40410364 15.90497457 157.66315937 15.90979636 C155.2470552 15.9217876 152.83151392 15.91227334 150.41540527 15.90284729 C148.68585885 15.90691117 146.95631501 15.91225201 145.22677612 15.91877747 C140.52435848 15.93247876 135.82213782 15.92714084 131.11971664 15.91764021 C126.204358 15.91005816 121.28901651 15.91708517 116.37365723 15.92179871 C108.11833663 15.92726051 99.86309648 15.92005352 91.60778809 15.90577698 C82.05617355 15.88944965 72.5047511 15.89473786 62.95314121 15.91125619 C54.76030359 15.92485897 46.56752388 15.92679664 38.37467861 15.91894019 C33.47795398 15.91425701 28.5813197 15.91365647 23.68460083 15.92354965 C19.08154916 15.93219949 14.47874576 15.92623384 9.87572098 15.90886688 C8.18379759 15.9048914 6.49185339 15.90605415 4.7999382 15.91265488 C2.49528788 15.92081885 0.19143964 15.91061209 -2.11315918 15.89561462 C-3.40438187 15.89448355 -4.69560455 15.89335247 -6.0259552 15.89218712 C-9.13537598 15.5146637 -9.13537598 15.5146637 -11.04301453 14.23694801 C-12.58490526 11.80590815 -12.59858878 9.37268678 -12.72912598 6.54981995 C-10.98261207 0.56341373 -5.39611465 0.01197673 0 0 Z " fill="#057AC9" transform="translate(259.1353759765625,220.48533630371094)"/>
<path d="M0 0 C2.99827916 1.68653203 5.55719958 3.55719958 8 6 C8.62711146 10.03143083 8.30610745 11.56402878 5.9375 14.9375 C3 17 3 17 -0.375 17 C-4 16 -4 16 -7.375 14.4375 C-12.48313744 12.41185929 -16.93652789 11.99327595 -22.2109375 13.7265625 C-27.94871171 16.35015442 -31.58266405 20.13079027 -34 26 C-34.8578947 33.63127261 -34.82993614 39.86467571 -30 46 C-24.31428955 51.25928217 -19.76508951 52.59500065 -12.1015625 52.5390625 C-7.63881815 51.76342179 -5.3327796 49.4643024 -2.03515625 46.5078125 C0 45 0 45 3.875 44.8125 C7.30072816 46.1142767 8.47853229 46.68857027 10 50 C10.676954 53.89248551 10.24755993 55.57561155 8.25 59 C2.57330418 64.97713376 -4.88607415 68.22428636 -13.04907227 68.61401367 C-24.76785182 68.67603238 -32.33316303 65.45712226 -40.80078125 57.375 C-43.75741171 54.18204916 -46.09311579 50.90911263 -48 47 C-48.36480469 46.2678125 -48.72960937 45.535625 -49.10546875 44.78125 C-50.28927496 41.10059489 -50.34192652 37.57670821 -50.3125 33.75 C-50.30686035 32.99146729 -50.3012207 32.23293457 -50.29541016 31.45141602 C-50.06546631 20.84098748 -46.61273443 14.10204974 -39.4765625 6.34375 C-28.87507956 -3.79230198 -13.21652326 -6.31515325 0 0 Z " fill="#FD6671" transform="translate(297,33)"/>
<path d="M0 0 C5.02830294 4.38120066 8.62499469 9.89860475 9.43359375 16.5859375 C9.44262407 25.34535138 9.33655595 31.6205927 3.0234375 37.99609375 C0.48088104 40.29364022 -1.92504886 42.46252443 -5 44 C2.92 44.33 10.84 44.66 19 45 C19 45.33 19 45.66 19 46 C13.62895991 46.09964824 8.25847014 46.17183292 2.88671875 46.21972656 C1.06338108 46.23971364 -0.75989356 46.26691286 -2.58300781 46.30175781 C-24.27574402 46.70567514 -24.27574402 46.70567514 -32.65625 39.81640625 C-33.2646875 39.07261719 -33.873125 38.32882813 -34.5 37.5625 C-35.1290625 36.82128906 -35.758125 36.08007812 -36.40625 35.31640625 C-41.10002334 28.49432883 -40.90696199 20.95838719 -40 13 C-37.37500772 5.35458522 -32.15995191 0.52790358 -25 -3 C-16.62115798 -5.71474482 -7.49124299 -4.48160326 0 0 Z " fill="#FDD1A4" transform="translate(155,98)"/>
<path d="M0 0 C4.24218084 1.2878049 5.04981668 2.4361553 7.5 6.0625 C8.54546724 8.53179738 9.45807954 10.91045434 10.296875 13.4453125 C10.5353717 14.14139618 10.77386841 14.83747986 11.01959229 15.55465698 C11.51838771 17.01705591 12.01227262 18.48113807 12.50146484 19.94677734 C13.25124601 22.19122992 14.0168705 24.42979105 14.78515625 26.66796875 C15.269163 28.09343326 15.75226776 29.51920443 16.234375 30.9453125 C16.46243835 31.61410431 16.69050171 32.28289612 16.92547607 32.97195435 C17.86596357 35.80406161 18.5 38.05507863 18.5 41.0625 C19.16 41.0625 19.82 41.0625 20.5 41.0625 C20.67160645 40.41780762 20.84321289 39.77311523 21.02001953 39.10888672 C22.99842489 31.75697005 25.12196891 24.45983201 27.375 17.1875 C27.70113281 16.08664063 28.02726562 14.98578125 28.36328125 13.8515625 C31.58140407 3.53353447 31.58140407 3.53353447 36.5 0.0625 C40.04361243 0.0625 42.36591591 0.40399956 45.4375 2.1875 C47.54412618 5.90507561 46.83043856 9.7740647 45.81085205 13.74960327 C44.8044283 16.99227146 43.73186231 20.20550554 42.6328125 23.41796875 C42.23802704 24.59716385 41.84324158 25.77635895 41.43649292 26.99128723 C40.38944446 30.1109586 39.33306738 33.22726501 38.27246094 36.34234619 C37.1970434 39.51091474 36.1368294 42.68453609 35.07421875 45.85742188 C34.26125549 48.27371988 33.44748106 50.68974516 32.6328125 53.10546875 C32.24940704 54.24404831 31.86600159 55.38262787 31.47097778 56.55570984 C31.11075531 57.61393448 30.75053284 58.67215912 30.37939453 59.76245117 C30.06406769 60.69175949 29.74874084 61.62106781 29.42385864 62.57853699 C27.1811844 68.60837707 27.1811844 68.60837707 23.5 71.0625 C20.125 71.5 20.125 71.5 16.5 71.0625 C11.36438866 67.09104081 9.82707863 62.49691401 7.87109375 56.5546875 C7.55471451 55.63342072 7.23833527 54.71215393 6.91236877 53.76296997 C5.90693217 50.82563936 4.92180428 47.88197114 3.9375 44.9375 C3.27285376 42.98130503 2.60685089 41.02557044 1.93945312 39.0703125 C0.97458367 36.24202596 0.01161241 33.4132143 -0.94314575 30.58149719 C-2.80575699 25.05802493 -4.73625324 19.57125579 -6.83764648 14.13305664 C-7.99062689 10.52877105 -8.02746668 7.82070007 -7.5 4.0625 C-5.28748437 0.43397437 -4.26107077 0.07609055 0 0 Z " fill="#FD6671" transform="translate(324.5,29.9375)"/>
<path d="M0 0 C1.09631241 -0.00379669 2.19262482 -0.00759338 3.32215881 -0.01150513 C6.95008856 -0.01892126 10.57721941 0.00248783 14.20507812 0.02490234 C16.72326564 0.02728622 19.24145496 0.02819221 21.75964355 0.02767944 C27.03891275 0.03080928 32.31797585 0.04690344 37.59716797 0.07421875 C43.69795063 0.10566876 49.79848132 0.11621489 55.8993392 0.11474764 C61.7715979 0.11352617 67.64377203 0.12396211 73.51600647 0.14033127 C76.01350916 0.14670294 78.51101928 0.15063902 81.00852966 0.15211868 C84.49670067 0.15644766 87.98455345 0.17394052 91.47265625 0.1953125 C93.02660851 0.19395294 93.02660851 0.19395294 94.61195374 0.19256592 C95.56247116 0.20109589 96.51298859 0.20962585 97.49230957 0.21841431 C98.31672798 0.221766 99.14114639 0.22511768 99.99054718 0.22857094 C102.49690532 0.51569067 104.10555599 1.14863358 106.23632812 2.48583984 C107.79093117 5.59504594 107.96353506 9.11667012 107.23632812 12.48583984 C104.32774109 15.17780452 102.38055044 15.86205037 98.4543457 15.8735199 C97.01594833 15.88837685 97.01594833 15.88837685 95.54849243 15.90353394 C94.50317352 15.89903229 93.45785461 15.89453064 92.38085938 15.88989258 C90.72176041 15.90018745 90.72176041 15.90018745 89.02914429 15.91069031 C85.36890875 15.92900876 81.70909972 15.92511379 78.04882812 15.91943359 C75.50821797 15.92399264 72.96760906 15.92929738 70.42700195 15.93531799 C65.10069186 15.94425881 59.77453765 15.94204775 54.44824219 15.93188477 C48.29282259 15.92039924 42.13783846 15.93448663 35.98247623 15.96128124 C30.05790099 15.98610475 24.1334612 15.98861739 18.20883179 15.98216438 C15.68898799 15.98201074 13.16913597 15.98809062 10.64932251 16.00045586 C7.1298153 16.01529383 3.61127338 16.004741 0.09179688 15.98754883 C-1.47618149 16.00205078 -1.47618149 16.00205078 -3.07583618 16.0168457 C-10.09326821 15.94487979 -10.09326821 15.94487979 -13.41088867 13.67323303 C-15.41359857 10.43493589 -15.29574679 8.21036423 -14.76367188 4.48583984 C-11.31897721 -1.06307761 -5.83940456 -0.06335054 0 0 Z " fill="#0279C8" transform="translate(261.763671875,189.51416015625)"/>
<path d="M0 0 C4.54154478 -0.08735463 9.08287232 -0.14051247 13.625 -0.1875 C15.55279297 -0.22520508 15.55279297 -0.22520508 17.51953125 -0.26367188 C19.38544922 -0.27817383 19.38544922 -0.27817383 21.2890625 -0.29296875 C23.00150146 -0.31653442 23.00150146 -0.31653442 24.74853516 -0.34057617 C30.3091611 0.24187413 34.15155372 2.62806821 37.75 6.8125 C38.32234375 7.45832031 38.8946875 8.10414063 39.484375 8.76953125 C43.90115239 15.26947943 43.33990035 22.50059026 43.31567383 30.05029297 C43.3124977 32.12650304 43.33607042 34.2013077 43.36132812 36.27734375 C43.36197266 37.59089844 43.36261719 38.90445313 43.36328125 40.2578125 C43.36626221 41.4555127 43.36924316 42.65321289 43.37231445 43.88720703 C42.96380781 47.30259043 42.5808547 48.73147363 40 51 C37.45629883 51.45410156 37.45629883 51.45410156 34.45703125 51.390625 C33.38388672 51.37773437 32.31074219 51.36484375 31.20507812 51.3515625 C30.08552734 51.31804687 28.96597656 51.28453125 27.8125 51.25 C26.68134766 51.23195312 25.55019531 51.21390625 24.38476562 51.1953125 C21.58899624 51.14812652 18.79492028 51.08230595 16 51 C15.99589111 50.02240723 15.99178223 49.04481445 15.98754883 48.03759766 C15.96556331 44.36553209 15.9110786 40.69450884 15.84741211 37.02294922 C15.82439953 35.44232268 15.80987618 33.86154644 15.80444336 32.28076172 C15.76070402 21.64200885 15.48203955 12.48203955 7.5 4.5 C5.0532587 3.03195522 2.69727595 1.92478033 0 1 C0 0.67 0 0.34 0 0 Z " fill="#FB4856" transform="translate(149,144)"/>
<path d="M0 0 C0.81331284 -0.00525696 1.62662567 -0.01051392 2.46458435 -0.01593018 C5.15635313 -0.02914687 7.84753171 -0.02038551 10.53930664 -0.01025391 C12.40873834 -0.01227436 14.27816927 -0.01518556 16.14759827 -0.01895142 C20.06755062 -0.02337719 23.98729801 -0.0169363 27.90722656 -0.00292969 C32.9323686 0.01415053 37.95702956 0.00433001 42.98215389 -0.01364708 C46.84346643 -0.02448816 50.70466494 -0.02103688 54.56598091 -0.0132637 C56.41874816 -0.01126198 58.27152575 -0.01372 60.12428093 -0.02070236 C62.71464315 -0.02832085 65.304227 -0.01670679 67.89453125 0 C68.66089905 -0.00607269 69.42726685 -0.01214539 70.21685791 -0.0184021 C73.35824495 0.01913501 75.67153353 0.21217487 78.48414612 1.66635132 C80.57966647 4.02797912 80.54020833 6.2799119 80.64086914 9.35302734 C79.64391363 12.57920016 77.81410958 13.58215 75.01196289 15.38818359 C72.23554311 15.77532487 69.85905744 15.93642959 67.08813477 15.90576172 C65.91402794 15.91627563 65.91402794 15.91627563 64.71620178 15.92700195 C62.13734108 15.94455972 59.55958411 15.93296767 56.98071289 15.91943359 C55.18379506 15.92212916 53.38687866 15.92601212 51.58996582 15.93103027 C47.82733243 15.9369223 44.06507935 15.92837202 40.30249023 15.90966797 C35.4836271 15.88687845 30.6656551 15.90000314 25.84682465 15.92395782 C22.13728136 15.93842388 18.42794874 15.93380614 14.71839905 15.92344666 C12.94181716 15.92078159 11.16521604 15.92404138 9.38865662 15.93336487 C6.90385398 15.94354398 4.42048693 15.92801172 1.93579102 15.90576172 C1.2042128 15.91385864 0.47263458 15.92195557 -0.28111267 15.93029785 C-5.10595053 15.85040757 -7.61815339 14.84550257 -10.98803711 11.38818359 C-11.84721166 8.44324977 -11.38659921 6.5268601 -10.98803711 3.38818359 C-8.51410366 -0.73944048 -4.29781806 -0.03396616 0 0 Z " fill="#077BC9" transform="translate(257.988037109375,252.61181640625)"/>
<path d="M0 0 C0.65579544 -0.00700928 1.31159088 -0.01401855 1.98725891 -0.02124023 C4.14957349 -0.03880847 6.31057309 -0.02720206 8.47290039 -0.01367188 C9.97978465 -0.0163675 11.48666722 -0.0202505 12.99354553 -0.02526855 C16.15016253 -0.03116222 19.30632637 -0.02260671 22.46289062 -0.00390625 C26.50274527 0.01886438 30.54153582 0.0057725 34.58135128 -0.01819611 C37.69299789 -0.0326748 40.80439374 -0.02803843 43.91604805 -0.01768494 C45.40514821 -0.01502232 46.89427136 -0.01827107 48.38334465 -0.02760315 C50.46841261 -0.03780162 52.55177717 -0.0222249 54.63671875 0 C55.82156357 0.00318237 57.00640839 0.00636475 58.22715759 0.00964355 C62.02794855 0.62137197 63.70296448 1.79466768 66.38305664 4.51757812 C67.00805664 7.45507812 67.00805664 7.45507812 66.38305664 10.51757812 C63.81353636 13.73577881 62.31785886 15.33150356 58.22715759 16.14576721 C57.04231277 16.14672897 55.85746796 16.14769073 54.63671875 16.14868164 C53.97917099 16.15583694 53.32162323 16.16299225 52.64414978 16.17036438 C50.48218172 16.18720057 48.3223023 16.16788519 46.16040039 16.14648438 C44.65255055 16.14731346 43.1447008 16.14977436 41.63685608 16.15379333 C38.48191007 16.15664767 35.32767545 16.14198539 32.17285156 16.11450195 C28.13177117 16.08038927 24.09195994 16.08644987 20.05081844 16.10516453 C16.93918807 16.11573878 13.82785244 16.10679358 10.71624947 16.09177971 C9.22633299 16.08660245 7.73638568 16.08707419 6.24647331 16.09332466 C4.16364324 16.0987837 2.08262362 16.07838604 0 16.05102539 C-1.18404922 16.04482681 -2.36809845 16.03862823 -3.58802795 16.03224182 C-7.2411404 15.41151654 -8.43287809 14.46812738 -10.61694336 11.51757812 C-11.16888738 7.65397001 -11.35898682 5.52049204 -8.99925232 2.33117676 C-5.8514466 -0.06517747 -3.93462554 0.01057511 0 0 Z " fill="#FD6570" transform="translate(363.616943359375,461.482421875)"/>
<path d="M0 0 C0.65579544 -0.00846954 1.31159088 -0.01693909 1.98725891 -0.02566528 C4.14933812 -0.04901332 6.31070479 -0.05005807 8.47290039 -0.04882812 C9.97978499 -0.05593104 11.48666688 -0.06363023 12.99354553 -0.07189941 C16.1500704 -0.08533908 19.30634517 -0.08691539 22.46289062 -0.08105469 C26.50285558 -0.07515856 30.54161877 -0.10574697 34.58135128 -0.14617157 C37.69298233 -0.17205397 40.80432419 -0.17492558 43.91604805 -0.17127991 C45.40517765 -0.17297065 46.89432066 -0.182609 48.38334465 -0.20042419 C50.46861471 -0.22262819 52.55145515 -0.21290993 54.63671875 -0.1953125 C55.82156357 -0.19736694 57.00640839 -0.19942139 58.22715759 -0.20153809 C62.3346076 0.60730139 63.84575948 2.15051115 66.38305664 5.41992188 C66.50805664 9.04492188 66.50805664 9.04492188 65.38305664 12.41992188 C61.53645459 15.42964394 58.53780274 15.80171006 53.72851562 15.82397461 C53.08072144 15.83083786 52.43292725 15.83770111 51.76550293 15.84477234 C49.63649224 15.86298881 47.50822184 15.85921172 45.37915039 15.85351562 C43.89372011 15.85807895 42.40829194 15.86338497 40.92286682 15.86940002 C37.81518963 15.87832018 34.70776959 15.8759195 31.60009766 15.8659668 C27.6196204 15.85446017 23.64002804 15.87471893 19.65966702 15.90388393 C16.59440996 15.92223395 13.52936565 15.92195627 10.46406746 15.91624641 C8.99645811 15.91609315 7.52883439 15.92214206 6.06127739 15.93453789 C4.00968759 15.9494302 1.95974172 15.93878831 -0.09179688 15.92163086 C-1.25808121 15.92146469 -2.42436554 15.92129852 -3.62599182 15.92112732 C-7.23332227 15.31663285 -8.40388506 14.27353944 -10.61694336 11.41992188 C-11.38939303 8.46075806 -11.01474478 6.55260809 -10.61694336 3.41992188 C-7.42229171 0.02352718 -4.51285545 0.03208869 0 0 Z " fill="#FDB239" transform="translate(257.616943359375,385.580078125)"/>
<path d="M0 0 C0.67676285 -0.00686325 1.3535257 -0.0137265 2.05079651 -0.02079773 C4.28806537 -0.03909992 6.52463522 -0.03522356 8.76196289 -0.02954102 C10.3175123 -0.03410141 11.87305968 -0.03940655 13.42860413 -0.04542542 C16.68946515 -0.05436334 19.95008136 -0.05192603 23.2109375 -0.04199219 C27.38875392 -0.0305049 31.56572482 -0.05070595 35.74343014 -0.07990932 C38.95623641 -0.0982611 42.16883972 -0.09798092 45.38168526 -0.0922718 C46.92186227 -0.09211844 48.46205291 -0.09817503 50.0021801 -0.11056328 C52.15693961 -0.12545226 54.31013306 -0.11481411 56.46484375 -0.09765625 C57.69045517 -0.09749008 58.91606659 -0.09732391 60.17881775 -0.09715271 C63.8915889 0.49960202 65.07616269 1.41901206 67.29711914 4.40405273 C67.79711914 7.40405273 67.79711914 7.40405273 67.29711914 10.40405273 C65.43002004 12.7068083 63.94064173 14.08229144 61.29711914 15.40405273 C59.23055127 15.51617856 57.16035232 15.56338461 55.09082031 15.58105469 C53.7857402 15.59388992 52.4806601 15.60672516 51.1360321 15.61994934 C49.70405455 15.62811686 48.27207272 15.63556057 46.84008789 15.64233398 C45.75997657 15.64844728 45.75997657 15.64844728 44.65804482 15.65468407 C40.84625154 15.67554582 37.03449427 15.68984664 33.22265625 15.69921875 C29.28823075 15.71027934 25.35437143 15.74467406 21.42014599 15.78439045 C18.39263366 15.81055544 15.36525621 15.81891046 12.33764076 15.82250023 C10.88757824 15.82736712 9.43752179 15.83898419 7.98756981 15.85753822 C5.95571925 15.8819207 3.92359338 15.87854574 1.89160156 15.87402344 C0.73625412 15.87988968 -0.41909332 15.88575592 -1.60945129 15.89179993 C-5.36070109 15.30033291 -7.02581119 14.04694321 -9.70288086 11.40405273 C-10.56205541 8.45911891 -10.10144296 6.54272924 -9.70288086 3.40405273 C-7.25088881 -0.38935862 -4.24309732 0.01871742 0 0 Z " fill="#FDB33C" transform="translate(256.702880859375,354.595947265625)"/>
<path d="M0 0 C1.00073296 -0.01270432 1.00073296 -0.01270432 2.02168274 -0.02566528 C4.22103067 -0.04901303 6.41967829 -0.05005819 8.61914062 -0.04882812 C10.15084106 -0.0559302 11.68253883 -0.06362926 13.2142334 -0.07189941 C16.42203166 -0.08533839 19.62958382 -0.08691531 22.83740234 -0.08105469 C26.94695917 -0.07515351 31.05533664 -0.1057683 35.16466522 -0.14617157 C38.32686722 -0.17202551 41.48878415 -0.17492827 44.65107727 -0.17127991 C46.16615264 -0.1729728 47.68124093 -0.18263174 49.19621277 -0.20042419 C51.31520526 -0.22257557 53.43179664 -0.21293699 55.55078125 -0.1953125 C57.35802673 -0.19839417 57.35802673 -0.19839417 59.20178223 -0.20153809 C62.27539062 0.41992188 62.27539062 0.41992188 64.66442871 2.79821777 C66.47979024 5.75256494 66.97067717 7.03039998 66.27539062 10.41992188 C64.40511577 12.6642517 62.88652659 14.11435389 60.27539062 15.41992188 C58.17290188 15.53214754 56.06683351 15.57926571 53.96142578 15.59692383 C53.31406967 15.60349503 52.66671356 15.61006622 51.9997406 15.61683655 C49.85464363 15.63656858 47.70961662 15.64823117 45.56445312 15.65820312 C44.8320982 15.66227865 44.09974327 15.66635418 43.34519577 15.67055321 C39.46971671 15.6914125 35.59427306 15.70571538 31.71875 15.71508789 C27.71472881 15.72615854 23.71126243 15.7605656 19.70743752 15.80025959 C16.62935345 15.82639485 13.55140228 15.83477687 10.47321701 15.83836937 C8.9972089 15.84324258 7.521207 15.85487758 6.04530716 15.87340736 C3.97913776 15.89773757 1.91441309 15.89684637 -0.15185547 15.88989258 C-1.32718842 15.89575882 -2.50252136 15.90162506 -3.71347046 15.90766907 C-7.3422044 15.31988324 -8.50468081 14.29036221 -10.72460938 11.41992188 C-11.49705905 8.46075806 -11.1224108 6.55260809 -10.72460938 3.41992188 C-7.51221606 -0.0096007 -4.54287092 0.03174496 0 0 Z " fill="#EBF4F6" transform="translate(98.724609375,279.580078125)"/>
<path d="M0 0 C0.67676285 -0.00686325 1.3535257 -0.0137265 2.05079651 -0.02079773 C4.28806537 -0.03909992 6.52463522 -0.03522356 8.76196289 -0.02954102 C10.3175123 -0.03410141 11.87305968 -0.03940655 13.42860413 -0.04542542 C16.68946515 -0.05436334 19.95008136 -0.05192603 23.2109375 -0.04199219 C27.38875392 -0.0305049 31.56572482 -0.05070595 35.74343014 -0.07990932 C38.95623641 -0.0982611 42.16883972 -0.09798092 45.38168526 -0.0922718 C46.92186227 -0.09211844 48.46205291 -0.09817503 50.0021801 -0.11056328 C52.15693961 -0.12545226 54.31013306 -0.11481411 56.46484375 -0.09765625 C57.69045517 -0.09749008 58.91606659 -0.09732391 60.17881775 -0.09715271 C63.29711914 0.40405273 63.29711914 0.40405273 65.7202301 2.21665955 C67.29711914 4.40405273 67.29711914 4.40405273 67.35961914 7.90405273 C66.08280238 12.11003736 64.95641089 13.0695415 61.29711914 15.40405273 C58.22387695 15.9119873 58.22387695 15.9119873 54.75024414 15.92163086 C53.44539063 15.9342395 52.14053711 15.94684814 50.79614258 15.95983887 C49.37979592 15.95267884 47.9634542 15.9444748 46.54711914 15.93530273 C45.08650454 15.9379993 43.62589168 15.94188309 42.1652832 15.94689941 C39.1087937 15.95278686 36.05277279 15.94425654 32.99633789 15.92553711 C29.08541565 15.90274714 25.17559146 15.91587439 21.26470947 15.93982697 C18.24999776 15.95430584 15.23554486 15.94966957 12.2208252 15.9393158 C10.77917347 15.93665424 9.33749798 15.93989818 7.89587402 15.94923401 C5.87858552 15.95943197 3.86121425 15.94112301 1.84399414 15.92163086 C0.1245459 15.9168573 0.1245459 15.9168573 -1.62963867 15.9119873 C-5.35574857 15.29614908 -7.03621426 14.02926301 -9.70288086 11.40405273 C-10.56205541 8.45911891 -10.10144296 6.54272924 -9.70288086 3.40405273 C-7.25088881 -0.38935862 -4.24309732 0.01871742 0 0 Z " fill="#E9F4F6" transform="translate(97.702880859375,248.595947265625)"/>
<path d="M0 0 C1.28813599 -0.01260864 2.57627197 -0.02521729 3.90344238 -0.03820801 C5.30607653 -0.03104819 6.70870569 -0.0228442 8.11132812 -0.01367188 C9.55334739 -0.01636743 10.99536488 -0.02025038 12.43737793 -0.02526855 C15.45696345 -0.03116076 18.47607511 -0.02261036 21.49560547 -0.00390625 C25.36294015 0.01888407 29.22916448 0.00575937 33.09645844 -0.01819611 C36.07338807 -0.03266213 39.05005518 -0.02804461 42.0269928 -0.01768494 C43.45272453 -0.01501983 44.87848022 -0.01827989 46.30418396 -0.02760315 C48.29783665 -0.03777985 50.29157309 -0.01951376 52.28515625 0 C53.418927 0.00318237 54.55269775 0.00636475 55.7208252 0.00964355 C59.29198462 0.63047474 60.47564144 1.65935869 62.64257812 4.51757812 C63.14257812 7.51757812 63.14257812 7.51757812 62.64257812 10.51757812 C60.46303353 13.40431636 59.27903146 14.40860036 55.6761322 15.0255127 C54.52158035 15.02869507 53.3670285 15.03187744 52.17749023 15.03515625 C50.21041359 15.05406921 50.21041359 15.05406921 48.20359802 15.07336426 C46.7757005 15.06620521 45.34780788 15.05800141 43.91992188 15.04882812 C42.45308678 15.05152335 40.98625342 15.05540602 39.51942444 15.0604248 C36.44856723 15.06631671 33.37817602 15.05776627 30.30737305 15.0390625 C26.37044489 15.01625213 22.43460621 15.02940985 18.49771786 15.05335236 C15.47021768 15.06780199 12.44297616 15.06320873 9.41546822 15.05284119 C7.96379022 15.05017259 6.51208875 15.0534484 5.06043816 15.0627594 C3.0330538 15.07291138 1.0055871 15.05469536 -1.02172852 15.03515625 C-2.17548477 15.03197388 -3.32924103 15.0287915 -4.51795959 15.0255127 C-7.35742188 14.51757812 -7.35742188 14.51757812 -9.22605896 12.67272949 C-10.7800823 9.7124455 -10.8383183 7.81515358 -10.35742188 4.51757812 C-7.27014754 0.43566182 -5.00667578 0.0140532 0 0 Z " fill="#0178C8" transform="translate(367.357421875,252.482421875)"/>
<path d="M0 0 C4.32326033 -0.0992011 8.64591024 -0.17162265 12.9699707 -0.21972656 C14.43948921 -0.23978825 15.90892841 -0.26704478 17.37817383 -0.30175781 C19.49580487 -0.35052141 21.61237687 -0.37302161 23.73046875 -0.390625 C25.00301514 -0.41157227 26.27556152 -0.43251953 27.58666992 -0.45410156 C31.57731488 0.07680464 33.17915793 1.18928487 36 4 C37.75354414 7.50708827 37.18464284 11.51211749 37.1875 15.375 C37.19974609 16.23867187 37.21199219 17.10234375 37.22460938 17.9921875 C37.22654297 18.8275 37.22847656 19.6628125 37.23046875 20.5234375 C37.23457764 21.28575684 37.23868652 22.04807617 37.24291992 22.83349609 C36.9626304 25.33328423 36.3474847 26.88048088 35 29 C31.40555817 31.39629455 28.85138348 31.25781331 24.70703125 31.1953125 C24.00100266 31.1924826 23.29497406 31.18965271 22.56755066 31.18673706 C20.31569367 31.17555464 18.06423648 31.1504542 15.8125 31.125 C14.28451096 31.11496767 12.75651567 31.10584226 11.22851562 31.09765625 C7.48552337 31.07562172 3.74282944 31.04110567 0 31 C0.64904297 30.27619141 1.29808594 29.55238281 1.96679688 28.80664062 C4.12252953 25.83085981 4.51158402 24.67576867 4.53125 21.09375 C4.53640625 20.18496094 4.5415625 19.27617187 4.546875 18.33984375 C4.53140625 17.40269531 4.5159375 16.46554688 4.5 15.5 C4.51546875 14.56285156 4.5309375 13.62570313 4.546875 12.66015625 C4.53914063 11.29697266 4.53914063 11.29697266 4.53125 9.90625 C4.52673828 9.08447266 4.52222656 8.26269531 4.51757812 7.41601562 C3.8267891 4.19146459 2.17291957 2.4232261 0 0 Z " fill="#3D88D0" transform="translate(386,130)"/>
<path d="M0 0 C4.55983403 1.87349702 6.39124234 4.68576389 8.7890625 8.87890625 C11.49298674 15.84805292 11.49014323 24.57687558 8.5 31.5 C5.60922347 36.25210386 0.97505973 40.51247014 -4 43 C3.92 43.33 11.84 43.66 20 44 C20 44.33 20 44.66 20 45 C14.62895991 45.09964824 9.25847014 45.17183292 3.88671875 45.21972656 C2.06338108 45.23971364 0.24010644 45.26691286 -1.58300781 45.30175781 C-23.10896271 45.70256968 -23.10896271 45.70256968 -31.69140625 38.8515625 C-38 31.34446764 -38 31.34446764 -38 26 C-37.113125 26.33 -36.22625 26.66 -35.3125 27 C-28.71211891 28.86853966 -20.44823755 29.33777954 -14 26.75 C-7.53916066 22.98117705 -3.66455376 19.06054908 -1 12 C-0.34156549 7.99652593 -0.07545327 4.05389819 0 0 Z " fill="#FBBB88" transform="translate(154,99)"/>
<path d="M0 0 C0.75792847 -0.0038269 1.51585693 -0.00765381 2.29675293 -0.01159668 C3.89364964 -0.01430955 5.49059126 -0.00699203 7.08740234 0.00976562 C9.52412494 0.03118736 11.95789976 0.00994611 14.39453125 -0.015625 C15.9505273 -0.01298161 17.50652153 -0.00785639 19.0625 0 C19.78659058 -0.00809692 20.51068115 -0.01619385 21.25671387 -0.02453613 C24.8481979 0.04164782 26.89977029 0.44829778 29.96289062 2.38085938 C32.03125 4.53125 32.03125 4.53125 33.09375 7.46875 C33.03125 10.53125 33.03125 10.53125 31.57836914 13.18554688 C27.92116531 16.55355363 25.02552518 16.22083277 20.21484375 16.125 C19.36197281 16.12504028 18.50910187 16.12508057 17.63038635 16.12512207 C15.83074559 16.11976897 14.03110526 16.10219498 12.23168945 16.07324219 C9.47469846 16.03134041 6.72014671 16.03217735 3.96289062 16.0390625 C2.21352467 16.02857137 0.46417131 16.01563367 -1.28515625 16 C-2.11020157 15.99979858 -2.93524689 15.99959717 -3.78529358 15.99938965 C-9.50173962 15.88090243 -9.50173962 15.88090243 -11.67857361 14.25109863 C-13.478844 11.8512775 -13.42719918 9.49228642 -13.5625 6.56640625 C-11.72600684 0.27158429 -5.59021777 -0.06251092 0 0 Z " fill="#FDB43C" transform="translate(259.96875,322.46875)"/>
<path d="M0 0 C0.78153946 -0.0038269 1.56307892 -0.00765381 2.36830139 -0.01159668 C4.01825247 -0.01431382 5.66824676 -0.00696634 7.31811523 0.00976562 C9.83610754 0.03115191 12.35123767 0.00997495 14.86914062 -0.015625 C16.47526669 -0.01298112 18.08139097 -0.0078549 19.6875 0 C20.43660141 -0.00809692 21.18570282 -0.01619385 21.95750427 -0.02453613 C25.60590289 0.04048725 27.73834287 0.42329129 30.85375977 2.38085938 C32.91015625 4.53125 32.91015625 4.53125 34.03515625 7.46875 C33.91015625 10.53125 33.91015625 10.53125 31.94580078 13.18554688 C27.90607144 16.30712638 25.17802215 16.2272287 20.21484375 16.125 C19.3855838 16.12504028 18.55632385 16.12508057 17.70193481 16.12512207 C15.95534656 16.11977661 14.20875812 16.10223537 12.46240234 16.07324219 C9.78669005 16.03127406 7.11348693 16.03218462 4.4375 16.0390625 C2.73826374 16.02857326 1.03904044 16.01563659 -0.66015625 16 C-1.46019073 15.99979858 -2.26022522 15.99959717 -3.08450317 15.99938965 C-8.54215509 15.88273371 -8.54215509 15.88273371 -11.08935547 14.24804688 C-12.83405264 11.25421805 -12.89295638 7.82590891 -12.08984375 4.53125 C-8.76683141 -0.03044604 -5.27501174 -0.05686315 0 0 Z " fill="#EAF4F6" transform="translate(100.08984375,216.46875)"/>
<path d="M0 0 C2.22860987 0.00097224 4.45377195 -0.04065957 6.68188477 -0.08496094 C8.10570575 -0.09016873 9.52953864 -0.09285612 10.95336914 -0.09277344 C12.24235107 -0.09986328 13.53133301 -0.10695312 14.859375 -0.11425781 C19.17758892 0.65767232 20.67397311 2.04550099 23.30102539 5.50097656 C23.36478279 9.19890547 23.30767529 11.44270359 20.70141602 14.18261719 C17.4470247 15.97001681 14.45486409 15.96866702 10.83227539 15.96972656 C10.11495239 15.97734009 9.39762939 15.98495361 8.65856934 15.99279785 C7.1457059 16.00357757 5.63276817 16.00646058 4.11987305 16.00195312 C1.80790172 16.00097946 -0.5007625 16.042642 -2.81225586 16.08691406 C-4.28490521 16.0921206 -5.75756606 16.09480926 -7.23022461 16.09472656 C-7.91886597 16.11112183 -8.60750732 16.12751709 -9.3170166 16.14440918 C-12.9848768 16.09169496 -14.45195461 15.73235001 -17.16577148 13.19042969 C-18.69897461 10.50097656 -18.69897461 10.50097656 -18.69897461 6.87597656 C-16.12211361 -1.82092933 -7.53453596 -0.02323681 0 0 Z " fill="#0379C8" transform="translate(406.698974609375,189.4990234375)"/>
</svg>
